<?xml version="1.0" encoding="utf-8"?>
<!-- Generator: Adobe Illustrator 24.3.0, SVG Export Plug-In . SVG Version: 6.00 Build 0)  -->
<svg version="1.1" id="Layer_1" xmlns="http://www.w3.org/2000/svg" xmlns:xlink="http://www.w3.org/1999/xlink" x="0px" y="0px"
	 viewBox="0 0 180 180" enable-background="new 0 0 180 180" xml:space="preserve">
<g>
	<g id="XMLID_863_">
		<path fill="#333333" d="M154.623,89.999c0,35.691-28.933,64.623-64.623,64.623c-35.689,0-64.622-28.932-64.622-64.623
			c0-35.689,28.933-64.621,64.622-64.621C125.69,25.378,154.623,54.31,154.623,89.999z"/>
	</g>
	<g>
		<g>
			<path fill="#333333" d="M116.776,79.538h24.11c1.863,0,3.39,1.525,3.39,3.391V83.8c0,1.863-1.526,3.389-3.39,3.389h-24.11
				c-1.864,0-3.39-1.525-3.39-3.389v-0.871C113.386,81.063,114.912,79.538,116.776,79.538z"/>
		</g>
		<g>
			<path fill="#333333" d="M106.187,64.659h30.324c1.865,0,3.391,1.525,3.391,3.389v0.871c0,1.865-1.525,3.391-3.391,3.391h-30.324
				c-1.865,0-3.391-1.525-3.391-3.391v-0.871C102.796,66.185,104.322,64.659,106.187,64.659z"/>
		</g>
		<g>
			<path fill="#333333" d="M95.55,79.538h11.195c1.866,0,3.392,1.525,3.392,3.391V83.8c0,1.863-1.525,3.389-3.392,3.389H95.55
				c-1.864,0-3.39-1.525-3.39-3.389v-0.871C92.161,81.063,93.686,79.538,95.55,79.538z"/>
		</g>
		<g>
			<path fill="#333333" d="M119.424,75.583v0.871c0,1.865-1.525,3.391-3.391,3.391h10.211c-1.865,0-3.391-1.525-3.391-3.391v-0.871
				c0-1.865,1.525-3.391,3.391-3.391h-10.211C117.899,72.192,119.424,73.718,119.424,75.583z"/>
		</g>
	</g>
	<g>
		<g>
			<path fill="#333333" d="M67.69,59.554h16.385c1.267,0,2.304,1.037,2.304,2.303v0.594c0,1.268-1.037,2.305-2.304,2.305H67.69
				c-1.268,0-2.304-1.037-2.304-2.305v-0.594C65.386,60.591,66.422,59.554,67.69,59.554z"/>
		</g>
		<g>
			<path fill="#333333" d="M60.494,49.442h20.608c1.268,0,2.304,1.037,2.304,2.305v0.59c0,1.268-1.036,2.305-2.304,2.305H60.494
				c-1.268,0-2.304-1.037-2.304-2.305v-0.59C58.19,50.479,59.226,49.442,60.494,49.442z"/>
		</g>
		<g>
			<path fill="#333333" d="M53.265,59.554h7.609c1.268,0,2.304,1.037,2.304,2.303v0.594c0,1.268-1.036,2.305-2.304,2.305h-7.609
				c-1.267,0-2.304-1.037-2.304-2.305v-0.594C50.961,60.591,51.999,59.554,53.265,59.554z"/>
		</g>
		<g>
			<path fill="#333333" d="M69.49,56.866v0.592c0,1.268-1.038,2.305-2.305,2.305h6.939c-1.268,0-2.303-1.037-2.303-2.305v-0.592
				c0-1.268,1.035-2.305,2.303-2.305h-6.939C68.452,54.562,69.49,55.599,69.49,56.866z"/>
		</g>
	</g>
	<g>
		<g>
			<path fill="#333333" d="M56.378,111.429h21.612c1.838,0,3.34,1.502,3.34,3.338v0.33c0,1.836-1.502,3.34-3.34,3.34H56.378
				c-1.836,0-3.338-1.504-3.338-3.34v-0.33C53.041,112.931,54.542,111.429,56.378,111.429z"/>
		</g>
		<g>
			<path fill="#333333" d="M49.388,97.802h27.306c1.835,0,3.338,1.502,3.338,3.338v0.33c0,1.836-1.503,3.34-3.338,3.34H49.388
				c-1.837,0-3.34-1.504-3.34-3.34v-0.33C46.048,99.304,47.551,97.802,49.388,97.802z"/>
		</g>
		<g>
			<path fill="#333333" d="M37.836,111.429h9.787c1.836,0,3.338,1.502,3.338,3.338v0.33c0,1.836-1.502,3.34-3.338,3.34h-9.787
				c-1.837,0-3.339-1.504-3.339-3.34v-0.33C34.498,112.931,36,111.429,37.836,111.429z"/>
		</g>
		<g>
			<path fill="#333333" d="M58.285,107.806v0.799c0,1.707-1.396,3.104-3.104,3.104h9.352c-1.708,0-3.105-1.396-3.105-3.104v-0.799
				c0-1.707,1.397-3.105,3.105-3.105H55.18C56.889,104.7,58.285,106.099,58.285,107.806z"/>
		</g>
	</g>
	<g>
		<g>
			<path fill="#333333" d="M107.799,124.395h16.384c1.268,0,2.305,1.037,2.305,2.305v0.59c0,1.268-1.037,2.305-2.305,2.305h-16.384
				c-1.267,0-2.303-1.037-2.303-2.305v-0.59C105.497,125.433,106.533,124.395,107.799,124.395z"/>
		</g>
		<g>
			<path fill="#333333" d="M100.604,114.282h20.607c1.268,0,2.305,1.039,2.305,2.305v0.592c0,1.268-1.037,2.305-2.305,2.305h-20.607
				c-1.268,0-2.305-1.037-2.305-2.305v-0.592C98.299,115.321,99.336,114.282,100.604,114.282z"/>
		</g>
		<g>
			<path fill="#333333" d="M93.376,124.395h7.608c1.267,0,2.305,1.037,2.305,2.305v0.59c0,1.268-1.038,2.305-2.305,2.305h-7.608
				c-1.268,0-2.305-1.037-2.305-2.305v-0.59C91.071,125.433,92.108,124.395,93.376,124.395z"/>
		</g>
		<g>
			<path fill="#333333" d="M109.599,121.708v0.592c0,1.266-1.037,2.303-2.305,2.303h6.941c-1.268,0-2.305-1.037-2.305-2.303v-0.592
				c0-1.267,1.037-2.305,2.305-2.305h-6.941C108.562,119.403,109.599,120.44,109.599,121.708z"/>
		</g>
	</g>
	<g>
		<g>
			<g id="XMLID_468_">
				<rect x="58.872" y="105.737" fill-rule="evenodd" clip-rule="evenodd" fill="#ADEBF6" width="57.42" height="17.092"/>
			</g>
			<g id="XMLID_458_">
				<g>
					<rect x="58.872" y="114.282" fill-rule="evenodd" clip-rule="evenodd" fill="#ADEBF6" width="57.42" height="8.547"/>
				</g>
			</g>
			<g>
				<rect x="106.627" y="105.737" fill-rule="evenodd" clip-rule="evenodd" fill="#333333" width="2.146" height="17.092"/>
			</g>
			<g>
				<rect x="96.402" y="105.737" fill-rule="evenodd" clip-rule="evenodd" fill="#333333" width="2.144" height="17.092"/>
			</g>
			<g>
				<rect x="62.79" y="105.737" fill-rule="evenodd" clip-rule="evenodd" fill="#333333" width="2.146" height="17.092"/>
			</g>
			<g>
				<g>
					<path fill-rule="evenodd" clip-rule="evenodd" fill="#333333" d="M102.409,111.409c-0.909,0-1.645-0.738-1.645-1.646
						s0.735-1.645,1.645-1.645c0.908,0,1.645,0.736,1.645,1.645S103.317,111.409,102.409,111.409z"/>
				</g>
				<g opacity="0.6">
					<path fill-rule="evenodd" clip-rule="evenodd" fill="#333333" d="M102.409,115.929c-0.909,0-1.645-0.736-1.645-1.646
						c0-0.908,0.735-1.645,1.645-1.645c0.908,0,1.645,0.736,1.645,1.645C104.053,115.192,103.317,115.929,102.409,115.929z"/>
				</g>
				<g opacity="0.2">
					<path fill-rule="evenodd" clip-rule="evenodd" fill="#333333" d="M102.409,120.448c-0.909,0-1.645-0.736-1.645-1.645
						c0-0.908,0.735-1.645,1.645-1.645c0.908,0,1.645,0.736,1.645,1.645C104.053,119.712,103.317,120.448,102.409,120.448z"/>
				</g>
			</g>
		</g>
		<g>
			<g id="XMLID_445_">
				
					<rect x="87.241" y="113.196" transform="matrix(0.0023 -1 1 0.0023 -51.6321 237.9529)" fill-rule="evenodd" clip-rule="evenodd" fill="#ADEBF6" width="12.383" height="63.311"/>
			</g>
			<g>
				<g>
					<polygon fill-rule="evenodd" clip-rule="evenodd" fill="#ADEBF6" points="125.074,151.114 125.085,146.071 61.775,145.704 
						61.763,150.972 					"/>
				</g>
			</g>
			<g>
				
					<rect x="111.038" y="143.981" transform="matrix(0.0023 -1 1 0.0023 -27.9431 261.8046)" fill-rule="evenodd" clip-rule="evenodd" fill="#333333" width="12.384" height="1.849"/>
			</g>
			<g>
				
					<rect x="104.641" y="143.958" transform="matrix(0.0023 -1 1 0.0023 -34.3038 255.383)" fill-rule="evenodd" clip-rule="evenodd" fill="#333333" width="12.383" height="1.849"/>
			</g>
			<g>
				
					<rect x="102.62" y="143.771" transform="matrix(0.7086 -0.7056 0.7056 0.7086 -72.0096 115.423)" fill-rule="evenodd" clip-rule="evenodd" fill="#333333" width="2.26" height="2.26"/>
			</g>
			<g>
				
					<rect x="98.798" y="143.706" transform="matrix(0.7089 -0.7054 0.7054 0.7089 -73.0674 112.6539)" fill-rule="evenodd" clip-rule="evenodd" fill="#333333" width="2.26" height="2.261"/>
			</g>
		</g>
		<g>
			<g id="XMLID_27_">
				
					<rect x="79.721" y="67.869" transform="matrix(0.0013 -1 1 0.0013 -13.7197 185.3118)" fill-rule="evenodd" clip-rule="evenodd" fill="#FF916E" width="12.383" height="63.311"/>
			</g>
			<g>
				<polygon fill-rule="evenodd" clip-rule="evenodd" fill="#FF916E" points="117.561,105.755 117.569,100.708 54.257,100.409 
					54.25,105.677 				"/>
			</g>
			<g>
				
					<rect x="103.52" y="98.629" transform="matrix(0.0012 -1 1 0.0012 10.0289 209.1472)" fill-rule="evenodd" clip-rule="evenodd" fill="#FFFFFF" width="12.384" height="1.849"/>
			</g>
			<g>
				
					<rect x="97.122" y="98.613" transform="matrix(0.0012 -1 1 0.0012 3.654 202.7326)" fill-rule="evenodd" clip-rule="evenodd" fill="#FFFFFF" width="12.383" height="1.848"/>
			</g>
			<g>
				
					<rect x="95.102" y="98.432" transform="matrix(0.7082 -0.706 0.706 0.7082 -42.2115 96.9952)" fill-rule="evenodd" clip-rule="evenodd" fill="#333333" width="2.261" height="2.261"/>
			</g>
			<g>
				
					<rect x="91.279" y="98.371" transform="matrix(0.7082 -0.706 0.706 0.7082 -43.2844 94.283)" fill-rule="evenodd" clip-rule="evenodd" fill="#333333" width="2.26" height="2.26"/>
			</g>
		</g>
		<g>
			<g>
				<path fill-rule="evenodd" clip-rule="evenodd" fill="#FF916E" d="M106.614,122.903v15.777H61.192
					c-4.197-0.186-7.543-3.65-7.543-7.895c0-4.186,3.25-7.609,7.365-7.883H106.614z"/>
			</g>
			<g>
				<path fill-rule="evenodd" clip-rule="evenodd" fill="#FFFFFF" d="M106.614,124.046v13.494H62.242
					c-3.9,0-7.061-3.023-7.061-6.752c0-3.605,2.952-6.549,6.669-6.742H106.614z"/>
			</g>
			<g>
				<polygon fill-rule="evenodd" clip-rule="evenodd" fill="#B2B2B2" points="93.602,137.54 93.651,128.491 91.795,128.499 
					91.795,137.54 				"/>
			</g>
			<g>
				<g>
					<polygon fill-rule="evenodd" clip-rule="evenodd" fill="#FF916E" points="85.933,128.528 91.827,128.491 91.926,144.288 
						88.956,141.788 86.033,144.325 					"/>
				</g>
				<g opacity="0.5">
					
						<rect x="86" y="137.719" transform="matrix(1 -0.006 0.006 1 -0.8327 0.536)" fill-rule="evenodd" clip-rule="evenodd" fill="#FF916E" width="5.894" height="2.768"/>
				</g>
			</g>
		</g>
	</g>
	<g>
		<g>
			<path fill="#FF916E" d="M108.414,49.587c0-10.17-8.244-18.414-18.414-18.414s-18.413,8.244-18.413,18.414
				c0,12.086,18.413,42.588,18.413,42.588S108.414,62.772,108.414,49.587z"/>
		</g>
		<g>
			<g>
				<path fill="#FFFFFF" d="M101.482,49.063c-0.214-6.32-5.506-11.275-11.828-11.084c-0.016,0.002-0.028,0.002-0.042,0.002
					c-6.343,0.215-11.31,5.525-11.095,11.861c0.215,6.336,5.529,11.299,11.871,11.084c0.014-0.002,0.027-0.002,0.042-0.004
					C96.752,60.687,101.697,55.386,101.482,49.063z"/>
			</g>
			<g>
				<g>
					<path fill="#ADEBF6" d="M100.589,44.929l-0.598,0.031l-0.312-0.318l-0.076-0.529l-0.302,0.178l-0.144,0.654l-0.459-0.459
						l-0.034-0.445l-0.441-0.355l-0.164-0.15l-0.497,0.016l0.173,0.439l0.609,0.312l0.107,0.107l-0.127,0.068l0.018,0.351
						l-0.288,0.131l-0.251-0.045l-0.162-0.217l0.405,0.008l0.105-0.15l-0.919-0.574l-0.076-0.256l-0.354,0.342l-0.372-0.064
						l-0.538,0.752l-0.101,0.289l-0.359,0.045L94.9,45.11l-0.322-0.137l-0.115-0.631l0.104-0.305l0.538-0.137l0.595,0.098
						l0.061-0.328l-0.253-0.051l0.068-0.512l0.592-0.113l0.396-0.602l0.427-0.086l0.39,0.043l0.143-0.004l-0.097-0.549l-0.465,0.205
						l-0.18-0.406l-0.275-0.027l-0.06-0.281l0.215-0.252l0.523-0.225l0.128-0.248c-2.08-1.711-4.763-2.707-7.659-2.617
						c-0.009,0.002-0.017,0.002-0.025,0.002c-2.523,0.086-4.827,0.982-6.678,2.43l0.578-0.023l0.264,0.135l0.489,0.088l0.045,0.189
						l0.775,0.002l-0.113-0.244l-0.688,0.004l0.157-0.158l-0.063-0.18l-0.621,0.021l0.661-0.529l0.649-0.021l0.319,0.41l0.508,0.01
						l0.295-0.307l0.234,0.107l-0.407,0.426c0,0-0.582,0.029-0.554,0.027c0.029,0,0.062,0.4,0.062,0.4l0.705-0.043l0.07-0.195
						l0.484-0.045l0.049-0.287l-0.288-0.039l0.087-0.262l0.218-0.072l0.765,0.012L87.221,40.2l0.078,0.293l0.441,0.053l-0.047-0.535
						l0.413-0.234l0.743-0.109l0.872,0.352l0.222,0.088l0.015,0.412l0.348,0.074l-0.161,0.33l-0.393,0.014l-0.095,0.004
						l-0.132,0.377l-1.122-0.226l0.859-0.494l-0.344-0.273l-0.751,0.121l-0.063,0.072l-0.003-0.002l-0.013,0.016l-0.21,0.234
						l-0.355,0.041l0.033,0.18l0.128,0.047l-0.004,0.059l-0.29,0.053l-0.016,0.17l-0.279,0.023l-0.062-0.334l-0.496,0.17
						l-1.004,0.633l0.13,0.418l0.292,0.178l0.576,0.061l0.022,0.65l0.263-0.051l0.227-0.518l0.603-0.213L87.62,41.55l0.33-0.268
						l0.826,0.164l-0.041,0.52l0.221-0.008l0.592-0.316l0.052,0.678l0.204,0.115l0.243,0.137l-0.005,0.402l-0.217,0.08l0.01,0.281
						l0.339,0.141v0.277l-0.146,0.018c-0.002-0.006-0.002-0.008-0.002-0.008l-0.179-0.049l-0.467-0.127l-0.033-0.203h-0.001
						l0.182-0.135l-0.007-0.188l-0.201-0.043l-0.044,0.174l-0.351,0.066l-0.036-0.01l0.001,0.016l-0.121,0.023l-0.106-0.197
						l-0.117-0.047l-0.25,0.01l-0.111,0.096l0.008,0.209l0.217,0.065l0.212,0.021l-0.046,0.023l-0.187,0.221l-0.088-0.105
						l-0.188-0.041l-0.493,0.494l0.068,0.053l-0.737,0.441l-0.683,0.76l-0.036,0.33l-0.694,0.488l-0.338,0.365l0.062,0.705
						l-0.495-0.211l-0.01-0.412l-1.355,0.047l-0.689,0.379l-0.286,0.572l-0.105,0.449l0.212,0.426l0.555,0.049l0.859-0.619
						l0.088,0.289l-0.253,0.518l0.674,0.09l0.102,1.031l0.923,0.125l0.56-0.693l0.712,0.119l0.261,0.338l0.676-0.062l0.012-0.201
						l0.378,0.168l0.443,0.645l0.726-0.014l0.283,0.459l0.058,0.572l0.522,0.178l0.291,0.1l1.013-0.025l0.312,0.477l0.454,0.129
						l-0.073,0.404l-0.471,0.643l-0.097,1.389l-0.432,0.365l-0.66,0.002l-0.206,0.389l0.001,0.002l0.187,0.711l-0.156,0.213
						l-0.53,0.729l-0.214,0.428l-0.672,0.352l-0.447,0.082l-0.013,0.191l0.318,0.08l-0.031,0.207l-0.272,0.281l0.178,0.209h0.341
						l-0.011,0.262l-0.08,0.26l-0.022,0.213l0.517,0.406l-0.06,0.223l-0.685,0.01l-0.7-0.572l-0.562-0.914l0.043-0.902l-0.418-0.521
						l0.132-0.912l-0.241-0.059L86.773,54.3c0,0-0.686-0.484-0.724-0.482c-0.038,0-0.356-0.074-0.356-0.074l-0.08-0.369
						l-0.905-1.061l0.072-0.395l0.006-0.641l0.588-0.441l-0.11-0.713l-0.88-0.037l-0.715-0.76l-0.491-0.117l-0.316-0.047
						l0.027-0.287l-0.402-0.043l0.005,0.162l-1.012-0.215l-0.424-0.604l0.154-0.305l-0.668-0.906l-0.132-0.674l-0.257,0.01
						l0.107,0.654l0.463,0.664l-0.039,0.269l-0.375-0.045l-0.484-0.766l-0.03-0.91l-0.485-0.213l-0.021-0.654
						c-0.544,1.402-0.82,2.934-0.766,4.529c0.215,6.338,5.545,11.318,11.883,11.104c0.008,0,0.017,0,0.025,0
						c3.582-0.131,6.728-1.895,8.744-4.549l-0.379,0.012l-0.025-0.764l-0.459-0.576l-0.031-0.92l-0.347-0.32l-0.041-0.383
						l0.397-0.826l-0.854-1.395l0.062-0.969l-0.729-0.051l-0.275-0.258l-0.487,0.016l-0.241,0.236l-0.859,0.029l-0.026,0.078
						l-0.478,0.016l-1.14-1.213l-0.024-0.975l0.179-0.074l0.056-0.375l-0.258,0.01l-0.119-0.389l1.24-0.959l-0.023-0.65l0.61-0.365
						l0.252,0.018l0.512-0.019l0.394-0.229l1.286-0.143l0.022,0.658l1.025,0.223l0.206,0.137l0.186-0.006l-0.012-0.357l0.585-0.078
						l0.573,0.396l0.917-0.031l0.062-0.061C100.83,45.522,100.716,45.224,100.589,44.929z M95.051,41.841l0.1-0.164l0.375-0.09
						l0.11,0.455l0.212,0.318l0.139,0.148l0.247,0.088l-0.22,0.279l-0.442,0.059l-0.335,0.012l0.024-0.398l0.276-0.066l-0.03-0.186
						l-0.264-0.154l-0.187-0.119L95.051,41.841z M94.455,42.579l0.218-0.375l0.307-0.082l0.225,0.088l-0.012,0.248l-0.461,0.352
						l-0.268,0.008L94.455,42.579z M88.475,43.917l0.329-0.012l0.062-0.176l0.132-0.008l0.149,0.025l-0.059,0.135l-0.162,0.019
						l-0.029,0.16l-0.123,0.082l-0.2,0.025c-0.009-0.049-0.016-0.086-0.016-0.086l-0.078,0.004L88.475,43.917z M88.02,44.231
						l0.007-0.166l0.104-0.137l0.146,0.107l-0.019,0.168L88.02,44.231z"/>
				</g>
			</g>
		</g>
	</g>
	<g>
		<g>
			<path fill="#FFFFFF" d="M138.926,108.265c0-2.049-1.664-3.713-3.71-3.713c2.046,0,3.71-1.662,3.71-3.713
				c0,2.051,1.667,3.713,3.713,3.713C140.593,104.552,138.926,106.216,138.926,108.265z"/>
		</g>
		<g>
			<path fill="#FFFFFF" d="M131.683,99.972c0-1.553-1.261-2.814-2.812-2.814c1.552,0,2.812-1.258,2.812-2.812
				c0,1.555,1.264,2.812,2.814,2.812C132.947,97.157,131.683,98.419,131.683,99.972z"/>
		</g>
		<g>
			<path fill="#FFFFFF" d="M55.479,75.528c0-1.555-1.262-2.814-2.812-2.814c1.551,0,2.812-1.26,2.812-2.814
				c0,1.555,1.263,2.814,2.813,2.814C56.742,72.714,55.479,73.974,55.479,75.528z"/>
		</g>
		<g>
			<path fill="#FFFFFF" d="M62.384,79.312c-0.745,0-1.352,0.605-1.352,1.352c0-0.746-0.604-1.352-1.351-1.352
				c0.747,0,1.351-0.607,1.351-1.352C61.033,78.704,61.639,79.312,62.384,79.312z"/>
		</g>
		<g>
			<path fill="#FFFFFF" d="M124.832,48.245c-1.114,0-2.021,0.906-2.021,2.019c0-1.113-0.903-2.019-2.018-2.019
				c1.115,0,2.018-0.904,2.018-2.018C122.812,47.341,123.718,48.245,124.832,48.245z"/>
		</g>
		<g>
			<path fill="#FFFFFF" d="M130.224,104.36c-0.746,0-1.354,0.605-1.354,1.35c0-0.744-0.605-1.35-1.352-1.35
				c0.747,0,1.352-0.607,1.352-1.354C128.871,103.753,129.478,104.36,130.224,104.36z"/>
		</g>
		<g>
			<path fill="#FFFFFF" d="M122.677,55.958c-1.846,0-3.344,1.496-3.344,3.338c0-1.842-1.495-3.338-3.342-3.338
				c1.847,0,3.342-1.5,3.342-3.344C119.333,54.458,120.831,55.958,122.677,55.958z"/>
		</g>
		<g>
			<path fill="#FFFFFF" d="M45.806,88.37c-1.032,0-1.872,0.838-1.872,1.869c0-1.031-0.837-1.869-1.87-1.869
				c1.033,0,1.87-0.84,1.87-1.871C43.934,87.53,44.774,88.37,45.806,88.37z"/>
		</g>
		<g>
			<path fill="#FFFFFF" d="M43.935,92.622c-2.886,0-5.232,2.344-5.232,5.227c0-2.883-2.341-5.227-5.229-5.227
				c2.889,0,5.229-2.348,5.229-5.23C38.703,90.274,41.049,92.622,43.935,92.622z"/>
		</g>
	</g>
</g>
</svg>
