<?xml version="1.0" encoding="UTF-8" standalone="no"?>
<!-- Generator: Adobe Illustrator 24.3.0, SVG Export Plug-In . SVG Version: 6.00 Build 0)  -->

<svg
   version="1.1"
   id="Layer_1"
   x="0px"
   y="0px"
   viewBox="0 0 129.245 129.244"
   enable-background="new 0 0 180 180"
   xml:space="preserve"
   sodipodi:docname="reshot-icon-book-map-QGJ2UAS5CT.svg"
   width="129.245"
   height="129.244"
   inkscape:version="1.1 (c68e22c387, 2021-05-23)"
   xmlns:inkscape="http://www.inkscape.org/namespaces/inkscape"
   xmlns:sodipodi="http://sodipodi.sourceforge.net/DTD/sodipodi-0.dtd"
   xmlns="http://www.w3.org/2000/svg"
   xmlns:svg="http://www.w3.org/2000/svg"><defs
   id="defs252" /><sodipodi:namedview
   id="namedview250"
   pagecolor="#ffffff"
   bordercolor="#666666"
   borderopacity="1.0"
   inkscape:pageshadow="2"
   inkscape:pageopacity="0.0"
   inkscape:pagecheckerboard="0"
   showgrid="false"
   inkscape:zoom="4.6222222"
   inkscape:cx="64.579327"
   inkscape:cy="64.579327"
   inkscape:window-width="1920"
   inkscape:window-height="1017"
   inkscape:window-x="1072"
   inkscape:window-y="533"
   inkscape:window-maximized="1"
   inkscape:current-layer="Layer_1" />
<g
   id="g247"
   transform="translate(-25.378,-25.378)">
	<g
   id="XMLID_863_">
		<path
   fill="#333333"
   d="m 154.623,89.999 c 0,35.691 -28.933,64.623 -64.623,64.623 -35.689,0 -64.622,-28.932 -64.622,-64.623 0,-35.689 28.933,-64.621 64.622,-64.621 35.69,0 64.623,28.932 64.623,64.621 z"
   id="path2" />
	</g>
	<g
   id="g21">
		<g
   id="g7">
			<path
   fill="#333333"
   d="m 116.776,79.538 h 24.11 c 1.863,0 3.39,1.525 3.39,3.391 V 83.8 c 0,1.863 -1.526,3.389 -3.39,3.389 h -24.11 c -1.864,0 -3.39,-1.525 -3.39,-3.389 v -0.871 c 0,-1.866 1.526,-3.391 3.39,-3.391 z"
   id="path5" />
		</g>
		<g
   id="g11">
			<path
   fill="#333333"
   d="m 106.187,64.659 h 30.324 c 1.865,0 3.391,1.525 3.391,3.389 v 0.871 c 0,1.865 -1.525,3.391 -3.391,3.391 h -30.324 c -1.865,0 -3.391,-1.525 -3.391,-3.391 v -0.871 c 0,-1.863 1.526,-3.389 3.391,-3.389 z"
   id="path9" />
		</g>
		<g
   id="g15">
			<path
   fill="#333333"
   d="m 95.55,79.538 h 11.195 c 1.866,0 3.392,1.525 3.392,3.391 V 83.8 c 0,1.863 -1.525,3.389 -3.392,3.389 H 95.55 c -1.864,0 -3.39,-1.525 -3.39,-3.389 v -0.871 c 0.001,-1.866 1.526,-3.391 3.39,-3.391 z"
   id="path13" />
		</g>
		<g
   id="g19">
			<path
   fill="#333333"
   d="m 119.424,75.583 v 0.871 c 0,1.865 -1.525,3.391 -3.391,3.391 h 10.211 c -1.865,0 -3.391,-1.525 -3.391,-3.391 v -0.871 c 0,-1.865 1.525,-3.391 3.391,-3.391 h -10.211 c 1.866,0 3.391,1.526 3.391,3.391 z"
   id="path17" />
		</g>
	</g>
	<g
   id="g39">
		<g
   id="g25">
			<path
   fill="#333333"
   d="m 67.69,59.554 h 16.385 c 1.267,0 2.304,1.037 2.304,2.303 v 0.594 c 0,1.268 -1.037,2.305 -2.304,2.305 H 67.69 c -1.268,0 -2.304,-1.037 -2.304,-2.305 v -0.594 c 0,-1.266 1.036,-2.303 2.304,-2.303 z"
   id="path23" />
		</g>
		<g
   id="g29">
			<path
   fill="#333333"
   d="m 60.494,49.442 h 20.608 c 1.268,0 2.304,1.037 2.304,2.305 v 0.59 c 0,1.268 -1.036,2.305 -2.304,2.305 H 60.494 c -1.268,0 -2.304,-1.037 -2.304,-2.305 v -0.59 c 0,-1.268 1.036,-2.305 2.304,-2.305 z"
   id="path27" />
		</g>
		<g
   id="g33">
			<path
   fill="#333333"
   d="m 53.265,59.554 h 7.609 c 1.268,0 2.304,1.037 2.304,2.303 v 0.594 c 0,1.268 -1.036,2.305 -2.304,2.305 h -7.609 c -1.267,0 -2.304,-1.037 -2.304,-2.305 v -0.594 c 0,-1.266 1.038,-2.303 2.304,-2.303 z"
   id="path31" />
		</g>
		<g
   id="g37">
			<path
   fill="#333333"
   d="m 69.49,56.866 v 0.592 c 0,1.268 -1.038,2.305 -2.305,2.305 h 6.939 c -1.268,0 -2.303,-1.037 -2.303,-2.305 v -0.592 c 0,-1.268 1.035,-2.305 2.303,-2.305 h -6.939 c 1.267,10e-4 2.305,1.038 2.305,2.305 z"
   id="path35" />
		</g>
	</g>
	<g
   id="g57">
		<g
   id="g43">
			<path
   fill="#333333"
   d="M 56.378,111.429 H 77.99 c 1.838,0 3.34,1.502 3.34,3.338 v 0.33 c 0,1.836 -1.502,3.34 -3.34,3.34 H 56.378 c -1.836,0 -3.338,-1.504 -3.338,-3.34 v -0.33 c 10e-4,-1.836 1.502,-3.338 3.338,-3.338 z"
   id="path41" />
		</g>
		<g
   id="g47">
			<path
   fill="#333333"
   d="m 49.388,97.802 h 27.306 c 1.835,0 3.338,1.502 3.338,3.338 v 0.33 c 0,1.836 -1.503,3.34 -3.338,3.34 H 49.388 c -1.837,0 -3.34,-1.504 -3.34,-3.34 v -0.33 c 0,-1.836 1.503,-3.338 3.34,-3.338 z"
   id="path45" />
		</g>
		<g
   id="g51">
			<path
   fill="#333333"
   d="m 37.836,111.429 h 9.787 c 1.836,0 3.338,1.502 3.338,3.338 v 0.33 c 0,1.836 -1.502,3.34 -3.338,3.34 h -9.787 c -1.837,0 -3.339,-1.504 -3.339,-3.34 v -0.33 c 10e-4,-1.836 1.503,-3.338 3.339,-3.338 z"
   id="path49" />
		</g>
		<g
   id="g55">
			<path
   fill="#333333"
   d="m 58.285,107.806 v 0.799 c 0,1.707 -1.396,3.104 -3.104,3.104 h 9.352 c -1.708,0 -3.105,-1.396 -3.105,-3.104 v -0.799 c 0,-1.707 1.397,-3.105 3.105,-3.105 H 55.18 c 1.709,-10e-4 3.105,1.398 3.105,3.105 z"
   id="path53" />
		</g>
	</g>
	<g
   id="g75">
		<g
   id="g61">
			<path
   fill="#333333"
   d="m 107.799,124.395 h 16.384 c 1.268,0 2.305,1.037 2.305,2.305 v 0.59 c 0,1.268 -1.037,2.305 -2.305,2.305 h -16.384 c -1.267,0 -2.303,-1.037 -2.303,-2.305 v -0.59 c 0.001,-1.267 1.037,-2.305 2.303,-2.305 z"
   id="path59" />
		</g>
		<g
   id="g65">
			<path
   fill="#333333"
   d="m 100.604,114.282 h 20.607 c 1.268,0 2.305,1.039 2.305,2.305 v 0.592 c 0,1.268 -1.037,2.305 -2.305,2.305 h -20.607 c -1.268,0 -2.305,-1.037 -2.305,-2.305 v -0.592 c 0,-1.266 1.037,-2.305 2.305,-2.305 z"
   id="path63" />
		</g>
		<g
   id="g69">
			<path
   fill="#333333"
   d="m 93.376,124.395 h 7.608 c 1.267,0 2.305,1.037 2.305,2.305 v 0.59 c 0,1.268 -1.038,2.305 -2.305,2.305 h -7.608 c -1.268,0 -2.305,-1.037 -2.305,-2.305 v -0.59 c 0,-1.267 1.037,-2.305 2.305,-2.305 z"
   id="path67" />
		</g>
		<g
   id="g73">
			<path
   fill="#333333"
   d="m 109.599,121.708 v 0.592 c 0,1.266 -1.037,2.303 -2.305,2.303 h 6.941 c -1.268,0 -2.305,-1.037 -2.305,-2.303 v -0.592 c 0,-1.267 1.037,-2.305 2.305,-2.305 h -6.941 c 1.268,0 2.305,1.037 2.305,2.305 z"
   id="path71" />
		</g>
	</g>
	<g
   id="g189">
		<g
   id="g111">
			<g
   id="XMLID_468_">
				<rect
   x="58.872002"
   y="105.737"
   fill-rule="evenodd"
   clip-rule="evenodd"
   fill="#adebf6"
   width="57.419998"
   height="17.091999"
   id="rect77" />
			</g>
			<g
   id="XMLID_458_">
				<g
   id="g82">
					<rect
   x="58.872002"
   y="114.282"
   fill-rule="evenodd"
   clip-rule="evenodd"
   fill="#adebf6"
   width="57.419998"
   height="8.5469999"
   id="rect80" />
				</g>
			</g>
			<g
   id="g87">
				<rect
   x="106.627"
   y="105.737"
   fill-rule="evenodd"
   clip-rule="evenodd"
   fill="#333333"
   width="2.1459999"
   height="17.091999"
   id="rect85" />
			</g>
			<g
   id="g91">
				<rect
   x="96.402"
   y="105.737"
   fill-rule="evenodd"
   clip-rule="evenodd"
   fill="#333333"
   width="2.1440001"
   height="17.091999"
   id="rect89" />
			</g>
			<g
   id="g95">
				<rect
   x="62.790001"
   y="105.737"
   fill-rule="evenodd"
   clip-rule="evenodd"
   fill="#333333"
   width="2.1459999"
   height="17.091999"
   id="rect93" />
			</g>
			<g
   id="g109">
				<g
   id="g99">
					<path
   fill-rule="evenodd"
   clip-rule="evenodd"
   fill="#333333"
   d="m 102.409,111.409 c -0.909,0 -1.645,-0.738 -1.645,-1.646 0,-0.908 0.735,-1.645 1.645,-1.645 0.908,0 1.645,0.736 1.645,1.645 0,0.909 -0.737,1.646 -1.645,1.646 z"
   id="path97" />
				</g>
				<g
   opacity="0.6"
   id="g103">
					<path
   fill-rule="evenodd"
   clip-rule="evenodd"
   fill="#333333"
   d="m 102.409,115.929 c -0.909,0 -1.645,-0.736 -1.645,-1.646 0,-0.908 0.735,-1.645 1.645,-1.645 0.908,0 1.645,0.736 1.645,1.645 -0.001,0.909 -0.737,1.646 -1.645,1.646 z"
   id="path101" />
				</g>
				<g
   opacity="0.2"
   id="g107">
					<path
   fill-rule="evenodd"
   clip-rule="evenodd"
   fill="#333333"
   d="m 102.409,120.448 c -0.909,0 -1.645,-0.736 -1.645,-1.645 0,-0.908 0.735,-1.645 1.645,-1.645 0.908,0 1.645,0.736 1.645,1.645 -0.001,0.909 -0.737,1.645 -1.645,1.645 z"
   id="path105" />
				</g>
			</g>
		</g>
		<g
   id="g138">
			<g
   id="XMLID_445_">
				
					<rect
   x="87.240997"
   y="113.196"
   transform="matrix(0.0023,-1,1,0.0023,-51.6321,237.9529)"
   fill-rule="evenodd"
   clip-rule="evenodd"
   fill="#adebf6"
   width="12.383"
   height="63.311001"
   id="rect113" />
			</g>
			<g
   id="g120">
				<g
   id="g118">
					<polygon
   fill-rule="evenodd"
   clip-rule="evenodd"
   fill="#adebf6"
   points="61.775,145.704 61.763,150.972 125.074,151.114 125.085,146.071 "
   id="polygon116" />
				</g>
			</g>
			<g
   id="g124">
				
					<rect
   x="111.038"
   y="143.981"
   transform="matrix(0.0023,-1,1,0.0023,-27.9431,261.8046)"
   fill-rule="evenodd"
   clip-rule="evenodd"
   fill="#333333"
   width="12.384"
   height="1.849"
   id="rect122" />
			</g>
			<g
   id="g128">
				
					<rect
   x="104.641"
   y="143.95799"
   transform="matrix(0.0023,-1,1,0.0023,-34.3038,255.383)"
   fill-rule="evenodd"
   clip-rule="evenodd"
   fill="#333333"
   width="12.383"
   height="1.849"
   id="rect126" />
			</g>
			<g
   id="g132">
				
					<rect
   x="102.62"
   y="143.771"
   transform="matrix(0.7086,-0.7056,0.7056,0.7086,-72.0096,115.423)"
   fill-rule="evenodd"
   clip-rule="evenodd"
   fill="#333333"
   width="2.26"
   height="2.26"
   id="rect130" />
			</g>
			<g
   id="g136">
				
					<rect
   x="98.797997"
   y="143.70599"
   transform="matrix(0.7089,-0.7054,0.7054,0.7089,-73.0674,112.6539)"
   fill-rule="evenodd"
   clip-rule="evenodd"
   fill="#333333"
   width="2.26"
   height="2.2609999"
   id="rect134" />
			</g>
		</g>
		<g
   id="g163">
			<g
   id="XMLID_27_">
				
					<rect
   x="79.721001"
   y="67.869003"
   transform="matrix(0.0013,-1,1,0.0013,-13.7197,185.3118)"
   fill-rule="evenodd"
   clip-rule="evenodd"
   fill="#ff916e"
   width="12.383"
   height="63.311001"
   id="rect140" />
			</g>
			<g
   id="g145">
				<polygon
   fill-rule="evenodd"
   clip-rule="evenodd"
   fill="#ff916e"
   points="54.257,100.409 54.25,105.677 117.561,105.755 117.569,100.708 "
   id="polygon143" />
			</g>
			<g
   id="g149">
				
					<rect
   x="103.52"
   y="98.628998"
   transform="matrix(0.0012,-1,1,0.0012,10.0289,209.1472)"
   fill-rule="evenodd"
   clip-rule="evenodd"
   fill="#ffffff"
   width="12.384"
   height="1.849"
   id="rect147" />
			</g>
			<g
   id="g153">
				
					<rect
   x="97.122002"
   y="98.612999"
   transform="matrix(0.0012,-1,1,0.0012,3.654,202.7326)"
   fill-rule="evenodd"
   clip-rule="evenodd"
   fill="#ffffff"
   width="12.383"
   height="1.848"
   id="rect151" />
			</g>
			<g
   id="g157">
				
					<rect
   x="95.101997"
   y="98.431999"
   transform="matrix(0.7082,-0.706,0.706,0.7082,-42.2115,96.9952)"
   fill-rule="evenodd"
   clip-rule="evenodd"
   fill="#333333"
   width="2.2609999"
   height="2.2609999"
   id="rect155" />
			</g>
			<g
   id="g161">
				
					<rect
   x="91.278999"
   y="98.371002"
   transform="matrix(0.7082,-0.706,0.706,0.7082,-43.2844,94.283)"
   fill-rule="evenodd"
   clip-rule="evenodd"
   fill="#333333"
   width="2.26"
   height="2.26"
   id="rect159" />
			</g>
		</g>
		<g
   id="g187">
			<g
   id="g167">
				<path
   fill-rule="evenodd"
   clip-rule="evenodd"
   fill="#ff916e"
   d="M 106.614,122.903 V 138.68 H 61.192 c -4.197,-0.186 -7.543,-3.65 -7.543,-7.895 0,-4.186 3.25,-7.609 7.365,-7.883 h 45.6 z"
   id="path165" />
			</g>
			<g
   id="g171">
				<path
   fill-rule="evenodd"
   clip-rule="evenodd"
   fill="#ffffff"
   d="M 106.614,124.046 V 137.54 H 62.242 c -3.9,0 -7.061,-3.023 -7.061,-6.752 0,-3.605 2.952,-6.549 6.669,-6.742 z"
   id="path169" />
			</g>
			<g
   id="g175">
				<polygon
   fill-rule="evenodd"
   clip-rule="evenodd"
   fill="#b2b2b2"
   points="91.795,128.499 91.795,137.54 93.602,137.54 93.651,128.491 "
   id="polygon173" />
			</g>
			<g
   id="g185">
				<g
   id="g179">
					<polygon
   fill-rule="evenodd"
   clip-rule="evenodd"
   fill="#ff916e"
   points="91.926,144.288 88.956,141.788 86.033,144.325 85.933,128.528 91.827,128.491 "
   id="polygon177" />
				</g>
				<g
   opacity="0.5"
   id="g183">
					
						<rect
   x="86"
   y="137.71899"
   transform="matrix(1,-0.006,0.006,1,-0.8327,0.536)"
   fill-rule="evenodd"
   clip-rule="evenodd"
   fill="#ff916e"
   width="5.8940001"
   height="2.7679999"
   id="rect181" />
				</g>
			</g>
		</g>
	</g>
	<g
   id="g207">
		<g
   id="g193">
			<path
   fill="#ff916e"
   d="m 108.414,49.587 c 0,-10.17 -8.244,-18.414 -18.414,-18.414 -10.17,0 -18.413,8.244 -18.413,18.414 0,12.086 18.413,42.588 18.413,42.588 0,0 18.414,-29.403 18.414,-42.588 z"
   id="path191" />
		</g>
		<g
   id="g205">
			<g
   id="g197">
				<path
   fill="#ffffff"
   d="m 101.482,49.063 c -0.214,-6.32 -5.506,-11.275 -11.828,-11.084 -0.016,0.002 -0.028,0.002 -0.042,0.002 -6.343,0.215 -11.31,5.525 -11.095,11.861 0.215,6.336 5.529,11.299 11.871,11.084 0.014,-0.002 0.027,-0.002 0.042,-0.004 6.322,-0.235 11.267,-5.536 11.052,-11.859 z"
   id="path195" />
			</g>
			<g
   id="g203">
				<g
   id="g201">
					<path
   fill="#adebf6"
   d="m 100.589,44.929 -0.598,0.031 -0.312,-0.318 -0.076,-0.529 -0.302,0.178 -0.144,0.654 -0.459,-0.459 -0.034,-0.445 -0.441,-0.355 -0.164,-0.15 -0.497,0.016 0.173,0.439 0.609,0.312 0.107,0.107 -0.127,0.068 0.018,0.351 -0.288,0.131 -0.251,-0.045 -0.162,-0.217 0.405,0.008 0.105,-0.15 -0.919,-0.574 -0.076,-0.256 -0.354,0.342 -0.372,-0.064 -0.538,0.752 -0.101,0.289 -0.359,0.045 -0.532,0.02 -0.322,-0.137 -0.115,-0.631 0.104,-0.305 0.538,-0.137 0.595,0.098 0.061,-0.328 -0.253,-0.051 0.068,-0.512 0.592,-0.113 0.396,-0.602 0.427,-0.086 0.39,0.043 0.143,-0.004 -0.097,-0.549 -0.465,0.205 -0.18,-0.406 -0.275,-0.027 -0.06,-0.281 0.215,-0.252 0.523,-0.225 0.128,-0.248 c -2.08,-1.711 -4.763,-2.707 -7.659,-2.617 -0.009,0.002 -0.017,0.002 -0.025,0.002 -2.523,0.086 -4.827,0.982 -6.678,2.43 l 0.578,-0.023 0.264,0.135 0.489,0.088 0.045,0.189 0.775,0.002 -0.113,-0.244 -0.688,0.004 0.157,-0.158 -0.063,-0.18 -0.621,0.021 0.661,-0.529 0.649,-0.021 0.319,0.41 0.508,0.01 0.295,-0.307 0.234,0.107 -0.407,0.426 c 0,0 -0.582,0.029 -0.554,0.027 0.029,0 0.062,0.4 0.062,0.4 l 0.705,-0.043 0.07,-0.195 0.484,-0.045 0.049,-0.287 -0.288,-0.039 0.087,-0.262 0.218,-0.072 0.765,0.012 -0.41,0.397 0.078,0.293 0.441,0.053 -0.047,-0.535 0.413,-0.234 0.743,-0.109 0.872,0.352 0.222,0.088 0.015,0.412 0.348,0.074 -0.161,0.33 -0.393,0.014 -0.095,0.004 -0.132,0.377 -1.122,-0.226 0.859,-0.494 -0.344,-0.273 -0.751,0.121 -0.063,0.072 -0.003,-0.002 -0.013,0.016 -0.21,0.234 -0.355,0.041 0.033,0.18 0.128,0.047 -0.004,0.059 -0.29,0.053 -0.016,0.17 -0.279,0.023 -0.062,-0.334 -0.496,0.17 -1.004,0.633 0.13,0.418 0.292,0.178 0.576,0.061 0.022,0.65 0.263,-0.051 0.227,-0.518 0.603,-0.213 -0.026,-0.784 0.33,-0.268 0.826,0.164 -0.041,0.52 0.221,-0.008 0.592,-0.316 0.052,0.678 0.204,0.115 0.243,0.137 -0.005,0.402 -0.217,0.08 0.01,0.281 0.339,0.141 v 0.277 l -0.146,0.018 C 90.026,43.765 90.026,43.763 90.026,43.763 L 89.847,43.714 89.38,43.587 89.347,43.384 h -10e-4 l 0.182,-0.135 -0.007,-0.188 -0.201,-0.043 -0.044,0.174 -0.351,0.066 -0.036,-0.01 0.001,0.016 -0.121,0.023 -0.106,-0.197 -0.117,-0.047 -0.25,0.01 -0.111,0.096 0.008,0.209 0.217,0.065 0.212,0.021 -0.046,0.023 -0.187,0.221 -0.088,-0.105 -0.188,-0.041 -0.493,0.494 0.068,0.053 -0.737,0.441 -0.683,0.76 -0.036,0.33 -0.694,0.488 -0.338,0.365 0.062,0.705 -0.495,-0.211 -0.01,-0.412 -1.355,0.047 -0.689,0.379 -0.286,0.572 -0.105,0.449 0.212,0.426 0.555,0.049 0.859,-0.619 0.088,0.289 -0.253,0.518 0.674,0.09 0.102,1.031 0.923,0.125 0.56,-0.693 0.712,0.119 0.261,0.338 0.676,-0.062 0.012,-0.201 0.378,0.168 0.443,0.645 0.726,-0.014 0.283,0.459 0.058,0.572 0.522,0.178 0.291,0.1 1.013,-0.025 0.312,0.477 0.454,0.129 -0.073,0.404 -0.471,0.643 -0.097,1.389 -0.432,0.365 -0.66,0.002 -0.206,0.389 0.001,0.002 0.187,0.711 -0.156,0.213 -0.53,0.729 -0.214,0.428 -0.672,0.352 -0.447,0.082 -0.013,0.191 0.318,0.08 -0.031,0.207 -0.272,0.281 0.178,0.209 h 0.341 l -0.011,0.262 -0.08,0.26 -0.022,0.213 0.517,0.406 -0.06,0.223 -0.685,0.01 -0.7,-0.572 -0.562,-0.914 0.043,-0.902 -0.418,-0.521 0.132,-0.912 -0.241,-0.059 -0.074,-1.972 c 0,0 -0.686,-0.484 -0.724,-0.482 -0.038,0 -0.356,-0.074 -0.356,-0.074 l -0.08,-0.369 -0.905,-1.061 0.072,-0.395 0.006,-0.641 0.588,-0.441 -0.11,-0.713 -0.88,-0.037 -0.715,-0.76 -0.491,-0.117 -0.316,-0.047 0.027,-0.287 -0.402,-0.043 0.005,0.162 -1.012,-0.215 -0.424,-0.604 0.154,-0.305 -0.668,-0.906 -0.132,-0.674 -0.257,0.01 0.107,0.654 0.463,0.664 -0.039,0.269 -0.375,-0.045 -0.484,-0.766 -0.03,-0.91 L 79.31,45.954 79.289,45.3 c -0.544,1.402 -0.82,2.934 -0.766,4.529 0.215,6.338 5.545,11.318 11.883,11.104 0.008,0 0.017,0 0.025,0 3.582,-0.131 6.728,-1.895 8.744,-4.549 l -0.379,0.012 -0.025,-0.764 -0.459,-0.576 -0.031,-0.92 -0.347,-0.32 -0.041,-0.383 0.397,-0.826 -0.854,-1.395 0.062,-0.969 -0.729,-0.051 -0.275,-0.258 -0.487,0.016 -0.241,0.236 -0.859,0.029 -0.026,0.078 -0.478,0.016 -1.14,-1.213 -0.024,-0.975 0.179,-0.074 0.056,-0.375 -0.258,0.01 -0.119,-0.389 1.24,-0.959 -0.023,-0.65 0.61,-0.365 0.252,0.018 0.512,-0.019 0.394,-0.229 1.286,-0.143 0.022,0.658 1.025,0.223 0.206,0.137 0.186,-0.006 -0.012,-0.357 0.585,-0.078 0.573,0.396 0.917,-0.031 0.062,-0.061 c -0.102,-0.305 -0.216,-0.603 -0.343,-0.898 z m -5.538,-3.088 0.1,-0.164 0.375,-0.09 0.11,0.455 0.212,0.318 0.139,0.148 0.247,0.088 -0.22,0.279 -0.442,0.059 -0.335,0.012 0.024,-0.398 0.276,-0.066 -0.03,-0.186 -0.264,-0.154 -0.187,-0.119 z m -0.596,0.738 0.218,-0.375 0.307,-0.082 0.225,0.088 -0.012,0.248 -0.461,0.352 -0.268,0.008 z m -5.98,1.338 0.329,-0.012 0.062,-0.176 0.132,-0.008 0.149,0.025 -0.059,0.135 -0.162,0.019 -0.029,0.16 -0.123,0.082 -0.2,0.025 c -0.009,-0.049 -0.016,-0.086 -0.016,-0.086 l -0.078,0.004 z m -0.455,0.314 0.007,-0.166 0.104,-0.137 0.146,0.107 -0.019,0.168 z"
   id="path199" />
				</g>
			</g>
		</g>
	</g>
	<g
   id="g245">
		<g
   id="g211">
			<path
   fill="#ffffff"
   d="m 138.926,108.265 c 0,-2.049 -1.664,-3.713 -3.71,-3.713 2.046,0 3.71,-1.662 3.71,-3.713 0,2.051 1.667,3.713 3.713,3.713 -2.046,0 -3.713,1.664 -3.713,3.713 z"
   id="path209" />
		</g>
		<g
   id="g215">
			<path
   fill="#ffffff"
   d="m 131.683,99.972 c 0,-1.553 -1.261,-2.814 -2.812,-2.814 1.552,0 2.812,-1.258 2.812,-2.812 0,1.555 1.264,2.812 2.814,2.812 -1.55,-0.001 -2.814,1.261 -2.814,2.814 z"
   id="path213" />
		</g>
		<g
   id="g219">
			<path
   fill="#ffffff"
   d="m 55.479,75.528 c 0,-1.555 -1.262,-2.814 -2.812,-2.814 1.551,0 2.812,-1.26 2.812,-2.814 0,1.555 1.263,2.814 2.813,2.814 -1.55,0 -2.813,1.26 -2.813,2.814 z"
   id="path217" />
		</g>
		<g
   id="g223">
			<path
   fill="#ffffff"
   d="m 62.384,79.312 c -0.745,0 -1.352,0.605 -1.352,1.352 0,-0.746 -0.604,-1.352 -1.351,-1.352 0.747,0 1.351,-0.607 1.351,-1.352 0.001,0.744 0.607,1.352 1.352,1.352 z"
   id="path221" />
		</g>
		<g
   id="g227">
			<path
   fill="#ffffff"
   d="m 124.832,48.245 c -1.114,0 -2.021,0.906 -2.021,2.019 0,-1.113 -0.903,-2.019 -2.018,-2.019 1.115,0 2.018,-0.904 2.018,-2.018 10e-4,1.114 0.907,2.018 2.021,2.018 z"
   id="path225" />
		</g>
		<g
   id="g231">
			<path
   fill="#ffffff"
   d="m 130.224,104.36 c -0.746,0 -1.354,0.605 -1.354,1.35 0,-0.744 -0.605,-1.35 -1.352,-1.35 0.747,0 1.352,-0.607 1.352,-1.354 0.001,0.747 0.608,1.354 1.354,1.354 z"
   id="path229" />
		</g>
		<g
   id="g235">
			<path
   fill="#ffffff"
   d="m 122.677,55.958 c -1.846,0 -3.344,1.496 -3.344,3.338 0,-1.842 -1.495,-3.338 -3.342,-3.338 1.847,0 3.342,-1.5 3.342,-3.344 0,1.844 1.498,3.344 3.344,3.344 z"
   id="path233" />
		</g>
		<g
   id="g239">
			<path
   fill="#ffffff"
   d="m 45.806,88.37 c -1.032,0 -1.872,0.838 -1.872,1.869 0,-1.031 -0.837,-1.869 -1.87,-1.869 1.033,0 1.87,-0.84 1.87,-1.871 0,1.031 0.84,1.871 1.872,1.871 z"
   id="path237" />
		</g>
		<g
   id="g243">
			<path
   fill="#ffffff"
   d="m 43.935,92.622 c -2.886,0 -5.232,2.344 -5.232,5.227 0,-2.883 -2.341,-5.227 -5.229,-5.227 2.889,0 5.229,-2.348 5.229,-5.23 0,2.882 2.346,5.23 5.232,5.23 z"
   id="path241" />
		</g>
	</g>
</g>
</svg>
